<mxfile host="app.diagrams.net" modified="2023-11-18T00:58:23.834Z" agent="Mozilla/5.0 (Windows NT 10.0; Win64; x64) AppleWebKit/537.36 (KHTML, like Gecko) Chrome/119.0.0.0 Safari/537.36" etag="d109ZbP1Q40DpQnlZKvM" version="22.0.0" type="device">
  <diagram name="ページ1" id="OGNrDn1dLWxi1kCt-IqO">
    <mxGraphModel dx="1621" dy="1671" grid="1" gridSize="10" guides="1" tooltips="1" connect="1" arrows="1" fold="1" page="1" pageScale="1" pageWidth="827" pageHeight="1169" math="0" shadow="0">
      <root>
        <mxCell id="0" />
        <mxCell id="1" parent="0" />
        <mxCell id="zfv6CKE3dc7yGmYyHtbj-12" value="AWS Cloud" style="points=[[0,0],[0.25,0],[0.5,0],[0.75,0],[1,0],[1,0.25],[1,0.5],[1,0.75],[1,1],[0.75,1],[0.5,1],[0.25,1],[0,1],[0,0.75],[0,0.5],[0,0.25]];outlineConnect=0;gradientColor=none;html=1;whiteSpace=wrap;fontSize=12;fontStyle=0;container=1;pointerEvents=0;collapsible=0;recursiveResize=0;shape=mxgraph.aws4.group;grIcon=mxgraph.aws4.group_aws_cloud_alt;strokeColor=#232F3E;fillColor=none;verticalAlign=top;align=left;spacingLeft=30;fontColor=#232F3E;dashed=0;" vertex="1" parent="1">
          <mxGeometry x="20" y="-40" width="630" height="580" as="geometry" />
        </mxCell>
        <mxCell id="zfv6CKE3dc7yGmYyHtbj-22" value="" style="sketch=0;outlineConnect=0;fontColor=#232F3E;gradientColor=none;fillColor=#232F3D;strokeColor=none;dashed=0;verticalLabelPosition=bottom;verticalAlign=top;align=center;html=1;fontSize=12;fontStyle=0;aspect=fixed;pointerEvents=1;shape=mxgraph.aws4.data_stream;" vertex="1" parent="zfv6CKE3dc7yGmYyHtbj-12">
          <mxGeometry x="40" y="220" width="78" height="78" as="geometry" />
        </mxCell>
        <mxCell id="zfv6CKE3dc7yGmYyHtbj-18" value="キャッシュ" style="text;html=1;strokeColor=none;fillColor=none;align=center;verticalAlign=middle;whiteSpace=wrap;rounded=0;" vertex="1" parent="zfv6CKE3dc7yGmYyHtbj-12">
          <mxGeometry x="34" y="320" width="90" height="30" as="geometry" />
        </mxCell>
        <mxCell id="zfv6CKE3dc7yGmYyHtbj-31" value="踏み台" style="text;html=1;strokeColor=none;fillColor=none;align=center;verticalAlign=middle;whiteSpace=wrap;rounded=0;" vertex="1" parent="zfv6CKE3dc7yGmYyHtbj-12">
          <mxGeometry x="364" y="470" width="60" height="30" as="geometry" />
        </mxCell>
        <mxCell id="zfv6CKE3dc7yGmYyHtbj-3" value="web" style="text;html=1;strokeColor=none;fillColor=none;align=center;verticalAlign=middle;whiteSpace=wrap;rounded=0;" vertex="1" parent="1">
          <mxGeometry x="211" y="280" width="60" height="30" as="geometry" />
        </mxCell>
        <mxCell id="zfv6CKE3dc7yGmYyHtbj-4" value="AP" style="text;html=1;strokeColor=none;fillColor=none;align=center;verticalAlign=middle;whiteSpace=wrap;rounded=0;" vertex="1" parent="1">
          <mxGeometry x="384" y="280" width="60" height="30" as="geometry" />
        </mxCell>
        <mxCell id="zfv6CKE3dc7yGmYyHtbj-5" value="DB" style="text;html=1;strokeColor=none;fillColor=none;align=center;verticalAlign=middle;whiteSpace=wrap;rounded=0;" vertex="1" parent="1">
          <mxGeometry x="540" y="280" width="60" height="30" as="geometry" />
        </mxCell>
        <mxCell id="zfv6CKE3dc7yGmYyHtbj-26" style="edgeStyle=orthogonalEdgeStyle;rounded=0;orthogonalLoop=1;jettySize=auto;html=1;" edge="1" parent="1" source="zfv6CKE3dc7yGmYyHtbj-6" target="zfv6CKE3dc7yGmYyHtbj-8">
          <mxGeometry relative="1" as="geometry" />
        </mxCell>
        <mxCell id="zfv6CKE3dc7yGmYyHtbj-6" value="" style="sketch=0;outlineConnect=0;fontColor=#232F3E;gradientColor=none;fillColor=#232F3D;strokeColor=none;dashed=0;verticalLabelPosition=bottom;verticalAlign=top;align=center;html=1;fontSize=12;fontStyle=0;aspect=fixed;pointerEvents=1;shape=mxgraph.aws4.globe;" vertex="1" parent="1">
          <mxGeometry x="202" y="180" width="78" height="78" as="geometry" />
        </mxCell>
        <mxCell id="zfv6CKE3dc7yGmYyHtbj-7" value="" style="sketch=0;outlineConnect=0;fontColor=#232F3E;gradientColor=none;fillColor=#232F3D;strokeColor=none;dashed=0;verticalLabelPosition=bottom;verticalAlign=top;align=center;html=1;fontSize=12;fontStyle=0;aspect=fixed;pointerEvents=1;shape=mxgraph.aws4.generic_database;" vertex="1" parent="1">
          <mxGeometry x="541" y="180" width="59" height="78" as="geometry" />
        </mxCell>
        <mxCell id="zfv6CKE3dc7yGmYyHtbj-27" style="edgeStyle=orthogonalEdgeStyle;rounded=0;orthogonalLoop=1;jettySize=auto;html=1;" edge="1" parent="1" source="zfv6CKE3dc7yGmYyHtbj-8" target="zfv6CKE3dc7yGmYyHtbj-7">
          <mxGeometry relative="1" as="geometry" />
        </mxCell>
        <mxCell id="zfv6CKE3dc7yGmYyHtbj-8" value="" style="sketch=0;outlineConnect=0;fontColor=#232F3E;gradientColor=none;fillColor=#232F3D;strokeColor=none;dashed=0;verticalLabelPosition=bottom;verticalAlign=top;align=center;html=1;fontSize=12;fontStyle=0;aspect=fixed;pointerEvents=1;shape=mxgraph.aws4.source_code;" vertex="1" parent="1">
          <mxGeometry x="380" y="180" width="57" height="78" as="geometry" />
        </mxCell>
        <mxCell id="zfv6CKE3dc7yGmYyHtbj-9" value="Amazon S3" style="sketch=0;outlineConnect=0;fontColor=#232F3E;gradientColor=none;strokeColor=#ffffff;fillColor=#232F3E;dashed=0;verticalLabelPosition=middle;verticalAlign=bottom;align=center;html=1;whiteSpace=wrap;fontSize=10;fontStyle=1;spacing=3;shape=mxgraph.aws4.productIcon;prIcon=mxgraph.aws4.s3;" vertex="1" parent="1">
          <mxGeometry x="190" width="80" height="100" as="geometry" />
        </mxCell>
        <mxCell id="zfv6CKE3dc7yGmYyHtbj-10" value="" style="sketch=0;points=[[0,0,0],[0.25,0,0],[0.5,0,0],[0.75,0,0],[1,0,0],[0,1,0],[0.25,1,0],[0.5,1,0],[0.75,1,0],[1,1,0],[0,0.25,0],[0,0.5,0],[0,0.75,0],[1,0.25,0],[1,0.5,0],[1,0.75,0]];outlineConnect=0;fontColor=#232F3E;fillColor=#8C4FFF;strokeColor=#ffffff;dashed=0;verticalLabelPosition=bottom;verticalAlign=top;align=center;html=1;fontSize=12;fontStyle=0;aspect=fixed;shape=mxgraph.aws4.resourceIcon;resIcon=mxgraph.aws4.route_53;" vertex="1" parent="1">
          <mxGeometry x="130" y="400" width="78" height="78" as="geometry" />
        </mxCell>
        <mxCell id="zfv6CKE3dc7yGmYyHtbj-21" style="edgeStyle=orthogonalEdgeStyle;rounded=0;orthogonalLoop=1;jettySize=auto;html=1;" edge="1" parent="1" source="zfv6CKE3dc7yGmYyHtbj-13" target="zfv6CKE3dc7yGmYyHtbj-8">
          <mxGeometry relative="1" as="geometry" />
        </mxCell>
        <mxCell id="zfv6CKE3dc7yGmYyHtbj-13" value="Amazon S3" style="sketch=0;outlineConnect=0;fontColor=#232F3E;gradientColor=none;strokeColor=#ffffff;fillColor=#232F3E;dashed=0;verticalLabelPosition=middle;verticalAlign=bottom;align=center;html=1;whiteSpace=wrap;fontSize=10;fontStyle=1;spacing=3;shape=mxgraph.aws4.productIcon;prIcon=mxgraph.aws4.s3;" vertex="1" parent="1">
          <mxGeometry x="460" width="80" height="100" as="geometry" />
        </mxCell>
        <mxCell id="zfv6CKE3dc7yGmYyHtbj-14" value="静的コンテンツ" style="text;html=1;strokeColor=none;fillColor=none;align=center;verticalAlign=middle;whiteSpace=wrap;rounded=0;" vertex="1" parent="1">
          <mxGeometry x="185" y="100" width="90" height="30" as="geometry" />
        </mxCell>
        <mxCell id="zfv6CKE3dc7yGmYyHtbj-15" value="ソースコード" style="text;html=1;strokeColor=none;fillColor=none;align=center;verticalAlign=middle;whiteSpace=wrap;rounded=0;" vertex="1" parent="1">
          <mxGeometry x="460" y="100" width="90" height="30" as="geometry" />
        </mxCell>
        <mxCell id="zfv6CKE3dc7yGmYyHtbj-16" value="ドメイン" style="text;html=1;strokeColor=none;fillColor=none;align=center;verticalAlign=middle;whiteSpace=wrap;rounded=0;" vertex="1" parent="1">
          <mxGeometry x="121" y="478" width="90" height="30" as="geometry" />
        </mxCell>
        <mxCell id="zfv6CKE3dc7yGmYyHtbj-17" value="ドメイン" style="text;html=1;strokeColor=none;fillColor=none;align=center;verticalAlign=middle;whiteSpace=wrap;rounded=0;" vertex="1" parent="1">
          <mxGeometry x="10" y="667" width="90" height="30" as="geometry" />
        </mxCell>
        <mxCell id="zfv6CKE3dc7yGmYyHtbj-20" value="" style="sketch=0;outlineConnect=0;fontColor=#232F3E;gradientColor=none;fillColor=#232F3D;strokeColor=none;dashed=0;verticalLabelPosition=bottom;verticalAlign=top;align=center;html=1;fontSize=12;fontStyle=0;aspect=fixed;pointerEvents=1;shape=mxgraph.aws4.user;" vertex="1" parent="1">
          <mxGeometry x="-68" y="190" width="78" height="78" as="geometry" />
        </mxCell>
        <mxCell id="zfv6CKE3dc7yGmYyHtbj-24" style="edgeStyle=orthogonalEdgeStyle;rounded=0;orthogonalLoop=1;jettySize=auto;html=1;" edge="1" parent="1" source="zfv6CKE3dc7yGmYyHtbj-22" target="zfv6CKE3dc7yGmYyHtbj-9">
          <mxGeometry relative="1" as="geometry">
            <Array as="points">
              <mxPoint x="99" y="50" />
            </Array>
          </mxGeometry>
        </mxCell>
        <mxCell id="zfv6CKE3dc7yGmYyHtbj-25" style="edgeStyle=orthogonalEdgeStyle;rounded=0;orthogonalLoop=1;jettySize=auto;html=1;" edge="1" parent="1" source="zfv6CKE3dc7yGmYyHtbj-22" target="zfv6CKE3dc7yGmYyHtbj-6">
          <mxGeometry relative="1" as="geometry" />
        </mxCell>
        <mxCell id="zfv6CKE3dc7yGmYyHtbj-28" value="" style="sketch=0;outlineConnect=0;fontColor=#232F3E;gradientColor=none;fillColor=#232F3D;strokeColor=none;dashed=0;verticalLabelPosition=bottom;verticalAlign=top;align=center;html=1;fontSize=12;fontStyle=0;aspect=fixed;pointerEvents=1;shape=mxgraph.aws4.user;" vertex="1" parent="1">
          <mxGeometry x="808" y="397" width="78" height="78" as="geometry" />
        </mxCell>
        <mxCell id="zfv6CKE3dc7yGmYyHtbj-32" value="" style="sketch=0;outlineConnect=0;fontColor=#232F3E;gradientColor=none;fillColor=#232F3D;strokeColor=none;dashed=0;verticalLabelPosition=bottom;verticalAlign=top;align=center;html=1;fontSize=12;fontStyle=0;aspect=fixed;pointerEvents=1;shape=mxgraph.aws4.client;" vertex="1" parent="1">
          <mxGeometry x="730" y="398" width="78" height="76" as="geometry" />
        </mxCell>
        <mxCell id="zfv6CKE3dc7yGmYyHtbj-33" value="" style="sketch=0;outlineConnect=0;fontColor=#232F3E;gradientColor=none;fillColor=#232F3D;strokeColor=none;dashed=0;verticalLabelPosition=bottom;verticalAlign=top;align=center;html=1;fontSize=12;fontStyle=0;aspect=fixed;pointerEvents=1;shape=mxgraph.aws4.client;" vertex="1" parent="1">
          <mxGeometry x="1017" y="440" width="78" height="76" as="geometry" />
        </mxCell>
        <mxCell id="zfv6CKE3dc7yGmYyHtbj-34" value="オペレーション" style="text;html=1;strokeColor=none;fillColor=none;align=center;verticalAlign=middle;whiteSpace=wrap;rounded=0;" vertex="1" parent="1">
          <mxGeometry x="789" y="486" width="110" height="30" as="geometry" />
        </mxCell>
      </root>
    </mxGraphModel>
  </diagram>
</mxfile>
